#!OML:ASF E:\Steps\Project 1\Capture day 1\Session 2\Subject.ASF
:FULLY-SPECIFIED
:DEGREES
133
root 8.76606 16.3078 30.2394 -151.722 0.689406 -179.854
lowerback -30.3158 -2.11177 -3.98326
upperback -2.73179 -0.410784 -0.0838983
thorax 12.8948 0.0246708 2.00591
lowerneck 0.813607 -1.68375 -4.06522
upperneck -11.5648 -0.98319 8.51573
head -3.48059 -0.424772 3.28112
rclavicle 8.44835e-016 -4.77083e-015
rhumerus -34.9416 -18.7685 -80.7088
rradius 28.2515
rwrist 0.415615
rhand -9.54974 -50.8339
rfingers 7.12502
rthumb 16.4172 -80.1592
lclavicle 8.44835e-016 -4.77083e-015
lhumerus -28.9481 6.20843 82.1779
lradius 18.7764
lwrist -7.81559
lhand -20.2999 -14.0664
lfingers 7.12502
lthumb 6.05024 15.8272
rfemur -24.6061 7.79472 18.2414
rtibia 7.88922
rfoot -20.0568 -10.406
rtoes -32.201
lfemur -24.0407 -7.9357 -17.8024
ltibia 6.78774
lfoot -8.65034 4.28252
ltoes -41.5929
134
root 8.76637 16.3076 30.2374 -151.748 0.694985 -179.869
lowerback -30.3199 -2.12422 -3.98329
upperback -2.69608 -0.43193 -0.0903665
thorax 12.9383 0.0110327 1.99043
lowerneck 0.716344 -1.67179 -4.05752
upperneck -11.5382 -0.962903 8.51423
head -3.45773 -0.411188 3.27762
rclavicle 1.68967e-015 -6.36111e-015
rhumerus -34.8811 -18.523 -80.8467
rradius 28.3016
rwrist 0.179126
rhand -9.5878 -50.8423
rfingers 7.12502
rthumb 16.3806 -80.1706
lclavicle 1.68967e-015 -6.36111e-015
lhumerus -28.8461 6.42963 82.1079
lradius 18.6582
lwrist -7.94552
lhand -20.396 -14.0277
lfingers 7.12502
lthumb 5.95749 15.8685
rfemur -24.5431 7.83982 18.2025
rtibia 7.84523
rfoot -20.1297 -10.3533
rtoes -31.6877
lfemur -23.9587 -8.04194 -17.8156
ltibia 6.70615
lfoot -8.67325 4.36748
ltoes -40.8277
135
root 8.7675 16.3066 30.2359 -151.779 0.704103 -179.85
lowerback -30.3031 -2.12167 -3.97206
upperback -2.67037 -0.442051 -0.0725584
thorax 12.961 0.00296281 1.99932
lowerneck 0.627787 -1.63885 -4.07261
upperneck -11.4963 -0.922741 8.48062
head -3.43324 -0.386906 3.26748
rclavicle -4.27387e-015 -5.1684e-015
rhumerus -34.843 -18.4862 -80.8646
rradius 28.3084
rwrist 0.202269
rhand -9.60343 -50.8582
rfingers 7.12502
rthumb 16.3655 -80.1877
lclavicle -4.27387e-015 -5.1684e-015
lhumerus -28.7718 6.52573 82.1151
lradius 18.5714
lwrist -8.01365
lhand -20.6135 -13.9918
lfingers 7.12502
lthumb 5.74754 15.9102
rfemur -24.4931 7.81358 18.2437
rtibia 7.82955
rfoot -20.1625 -10.2691
rtoes -31.4593
lfemur -23.871 -8.12556 -17.7782
ltibia 6.58156
lfoot -8.64069 4.42203
ltoes -39.6693
136
root 8.76891 16.3055 30.2344 -151.799 0.675017 -179.835
lowerback -30.3186 -2.15743 -4.00374
upperback -2.66966 -0.490663 0.0161655
thorax 12.9729 -0.0231698 2.09313
lowerneck 0.585673 -1.53069 -4.19922
upperneck -11.3971 -0.802478 8.42094
head -3.40409 -0.322167 3.2657
rclavicle 3.18055e-015 9.14409e-015
rhumerus -34.865 -18.3988 -80.7523
rradius 28.3337
rwrist 0.221664
rhand -9.61349 -50.9048
rfingers 7.12502
rthumb 16.3558 -80.2352
lclavicle 3.18055e-015 9.14409e-015
lhumerus -28.8135 6.72339 82.1912
lradius 18.5453
lwrist -8.26476
lhand -20.7409 -14.016
lfingers 7.12502
lthumb 5.62449 15.8893
rfemur -24.4458 7.80078 18.2808
rtibia 7.80045
rfoot -20.1443 -10.253
rtoes -31.2111
lfemur -23.8699 -8.05598 -17.7698
ltibia 6.60766
lfoot -8.60304 4.36439
ltoes -40.4865
137
root 8.77088 16.3056 30.2338 -151.812 0.575513 -179.807
lowerback -30.3182 -2.12916 -3.92402
upperback -2.60762 -0.484176 -0.0291332
thorax 13.0418 -0.0220029 2.00315
lowerneck 0.415359 -1.5466 -4.14105
upperneck -11.3426 -0.814717 8.41685
head -3.359 -0.323255 3.25308
rclavicle 1.93815e-015 -1.78906e-014
rhumerus -34.7533 -18.5601 -80.8254
rradius 28.3477
rwrist 0.23741
rhand -9.61778 -50.9026
rfingers 7.12502
rthumb 16.3517 -80.2333
lclavicle 1.93815e-015 -1.78906e-014
lhumerus -28.7038 6.4941 82.222
lradius 18.6141
lwrist -8.28701
lhand -20.803 -13.9712
lfingers 7.12502
lthumb 5.56457 15.9358
rfemur -24.3958 7.86343 18.3285
rtibia 7.75598
rfoot -20.1151 -10.4169
rtoes -31.2592
lfemur -23.9158 -7.98787 -17.7173
ltibia 6.70938
lfoot -8.5928 4.27797
ltoes -41.5297
